<?xml version="1.0" encoding="UTF-8" standalone="no"?>
<!-- Created with Inkscape (http://www.inkscape.org/) -->

<svg
   width="512"
   height="512"
   viewBox="0 0 135.46667 135.46667"
   version="1.1"
   id="svg1"
   inkscape:export-filename="icon"
   inkscape:export-xdpi="96"
   inkscape:export-ydpi="96"
   inkscape:version="1.3.2 (091e20e, 2023-11-25, custom)"
   sodipodi:docname="icon.svg"
   xmlns:inkscape="http://www.inkscape.org/namespaces/inkscape"
   xmlns:sodipodi="http://sodipodi.sourceforge.net/DTD/sodipodi-0.dtd"
   xmlns="http://www.w3.org/2000/svg"
   xmlns:svg="http://www.w3.org/2000/svg">
  <sodipodi:namedview
     id="namedview1"
     pagecolor="#ffffff"
     bordercolor="#666666"
     borderopacity="1.0"
     inkscape:showpageshadow="2"
     inkscape:pageopacity="0.0"
     inkscape:pagecheckerboard="0"
     inkscape:deskcolor="#d1d1d1"
     inkscape:document-units="mm"
     inkscape:zoom="0.125"
     inkscape:cx="88"
     inkscape:cy="236"
     inkscape:window-width="1920"
     inkscape:window-height="1137"
     inkscape:window-x="-8"
     inkscape:window-y="-8"
     inkscape:window-maximized="1"
     inkscape:current-layer="layer1" />
  <defs
     id="defs1" />
  <g
     inkscape:label="Layer 1"
     inkscape:groupmode="layer"
     id="layer1">
    <g
       id="g1"
       transform="matrix(21.881293,0,0,21.881293,-2.9668675,-1.6168598)"
       style="fill:none;stroke:#1a1a1a;stroke-width:0.594141;stroke-dasharray:none">
      <path
         fill="none"
         stroke-width="0.0579894"
         stroke-linecap="butt"
         stroke-linejoin="round"
         stroke="#ff0000"
         stroke-opacity="1"
         stroke-miterlimit="2"
         d="m 1.4168884,4.8313794 0.014189,0.01968 0.1094021,0.1377367 0.1151452,0.1307284 0.1213227,0.1231974 0.1279983,0.1150509 0.1354006,0.1060318 0.1431489,0.09657 0.1516991,0.086149 0.1607588,0.075273 0.012901,0.00481 0.1590745,0.056607 0.1809583,0.047604 0.002,4.436e-4 0.1973654,0.030442 0.056248,0.00408 0.1569845,0.007 0.062126,-0.00194 0.1706779,-0.010767 0.02485,-0.00335 0.1768573,-0.02958 0.05725,-0.011786 0.1064624,-0.028565 0.1544524,-0.047803 0.033868,-0.012036 0.1097751,-0.044745 0.1369234,-0.06232 0.1081524,-0.054564 0.022713,-0.012555 0.1228147,-0.073883 0.1180984,-0.077759 0.1132879,-0.08155 0.1088061,-0.085373 0.027321,-0.023466 0.075648,-0.066723 0.098226,-0.093902 0.094003,-0.097508 0.089716,-0.1010269 0.085359,-0.1044513 0.081131,-0.108064 0.076755,-0.1116555 0.072212,-0.1152298 0.042285,-0.074125 0.024983,-0.045285 0.061324,-0.1242932 0.056181,-0.1283713 0.05117,-0.1326242 0.043689,-0.1301113 0.002,-0.00688 0.036139,-0.1449755 0.030061,-0.1497687 0.00996,-0.065052 0.010017,-0.093138 L 5.9668717,3.151247 5.9674062,3.1143393 5.9620612,2.972617 5.9526977,2.861521 5.9407387,2.780536 5.9135502,2.6381272 5.895304,2.5687071 5.8554911,2.4377672 5.8128712,2.3266596 5.7828101,2.2552745 5.6976106,2.088021 5.6611375,2.0276528 5.6014826,1.9340839 5.4959431,1.7914579 5.3825937,1.6585376 5.2617766,1.5347288 5.1534185,1.436807 5.1339803,1.4194067 5.0559235,1.3568737 4.9997429,1.3119753 4.8593857,1.2119866 4.7133642,1.1189195 4.5621727,1.0321568 4.406238,0.9511776 4.2697357,0.88686027 4.2456196,0.87588179 4.0790563,0.8078633 3.9086919,0.74448807 3.8654048,0.72993342 3.7325095,0.68820367 3.5522856,0.63666636 3.53278,0.63164818 3.3655957,0.59314276 l -0.123978,-0.0256389 -0.067503,-0.0119975 -0.1970113,-0.030882 -6.682e-4,-8.65e-6 -0.2043996,-0.0209764 -0.037877,-0.003269 -0.1749,-0.008364 -0.050303,-0.001666 -0.1719064,0.001536 -0.038077,8.6847e-4 -0.1961431,0.0136125 -1.738e-4,-1.3113e-4 -0.1824696,0.0249775 -0.071691,0.0140163 -0.099037,0.020588 -0.1593456,0.0439351 -0.023789,0.008479 -0.1233993,0.0452905 -0.1363984,0.0627542 -0.096059,0.0548174 -0.029392,0.0169195 -0.1138167,0.0811196 -0.10320341,0.0899677 -0.0922538,0.0989448 -0.0814118,0.1076889 -0.0707948,0.1165393 -0.0601086,0.1252987 -0.0240085,0.064825 -0.0251697,0.069289 -0.0383901,0.1431086 -0.0284921,0.1512222 -0.002615,0.023034 -0.0145739,0.1372906 -0.007364,0.1606376 -1.9708e-4,0.00775 0.003672,0.1775783 0.005134,0.075384 0.009113,0.1107231 0.0158428,0.1300132 0.008998,0.064938 0.0280115,0.1610817 0.008306,0.043281 0.0381843,0.1711817 0.0105555,0.04322 0.0436947,0.1617835 0.0188038,0.06405 0.0420451,0.1328953 0.0360521,0.1057222 0.0305475,0.084215 0.0660131,0.1693916 0.005749,0.014247 0.0778203,0.1764344 0.0407684,0.085859 0.041705,0.084721 0.087499,0.1644503 0.03447,0.059601 0.058346,0.098364 0.098056,0.1515761 z m 0,0"
         id="path2624"
         style="fill:none;stroke:#1a1a1a;stroke-width:0.594141;stroke-dasharray:none" />
    </g>
    <g
       id="g2"
       transform="matrix(21.881293,0,0,21.881293,-2.9668675,-1.6168598)"
       style="fill:none;stroke:#ffff00;stroke-width:0.594141;stroke-dasharray:0.594141, 0.594141;stroke-dashoffset:0">
      <path
         fill="none"
         stroke-width="0.0579894"
         stroke-linecap="butt"
         stroke-linejoin="round"
         stroke="#ff0000"
         stroke-opacity="1"
         stroke-miterlimit="2"
         d="m 1.4168884,4.8313794 0.014189,0.01968 0.1094021,0.1377367 0.1151452,0.1307284 0.1213227,0.1231974 0.1279983,0.1150509 0.1354006,0.1060318 0.1431489,0.09657 0.1516991,0.086149 0.1607588,0.075273 0.012901,0.00481 0.1590745,0.056607 0.1809583,0.047604 0.002,4.436e-4 0.1973654,0.030442 0.056248,0.00408 0.1569845,0.007 0.062126,-0.00194 0.1706779,-0.010767 0.02485,-0.00335 0.1768573,-0.02958 0.05725,-0.011786 0.1064624,-0.028565 0.1544524,-0.047803 0.033868,-0.012036 0.1097751,-0.044745 0.1369234,-0.06232 0.1081524,-0.054564 0.022713,-0.012555 0.1228147,-0.073883 0.1180984,-0.077759 0.1132879,-0.08155 0.1088061,-0.085373 0.027321,-0.023466 0.075648,-0.066723 0.098226,-0.093902 0.094003,-0.097508 0.089716,-0.1010269 0.085359,-0.1044513 0.081131,-0.108064 0.076755,-0.1116555 0.072212,-0.1152298 0.042285,-0.074125 0.024983,-0.045285 0.061324,-0.1242932 0.056181,-0.1283713 0.05117,-0.1326242 0.043689,-0.1301113 0.002,-0.00688 0.036139,-0.1449755 0.030061,-0.1497687 0.00996,-0.065052 0.010017,-0.093138 L 5.9668717,3.151247 5.9674062,3.1143393 5.9620612,2.972617 5.9526977,2.861521 5.9407387,2.780536 5.9135502,2.6381272 5.895304,2.5687071 5.8554911,2.4377672 5.8128712,2.3266596 5.7828101,2.2552745 5.6976106,2.088021 5.6611375,2.0276528 5.6014826,1.9340839 5.4959431,1.7914579 5.3825937,1.6585376 5.2617766,1.5347288 5.1534185,1.436807 5.1339803,1.4194067 5.0559235,1.3568737 4.9997429,1.3119753 4.8593857,1.2119866 4.7133642,1.1189195 4.5621727,1.0321568 4.406238,0.9511776 4.2697357,0.88686027 4.2456196,0.87588179 4.0790563,0.8078633 3.9086919,0.74448807 3.8654048,0.72993342 3.7325095,0.68820367 3.5522856,0.63666636 3.53278,0.63164818 3.3655957,0.59314276 l -0.123978,-0.0256389 -0.067503,-0.0119975 -0.1970113,-0.030882 -6.682e-4,-8.65e-6 -0.2043996,-0.0209764 -0.037877,-0.003269 -0.1749,-0.008364 -0.050303,-0.001666 -0.1719064,0.001536 -0.038077,8.6847e-4 -0.1961431,0.0136125 -1.738e-4,-1.3113e-4 -0.1824696,0.0249775 -0.071691,0.0140163 -0.099037,0.020588 -0.1593456,0.0439351 -0.023789,0.008479 -0.1233993,0.0452905 -0.1363984,0.0627542 -0.096059,0.0548174 -0.029392,0.0169195 -0.1138167,0.0811196 -0.10320341,0.0899677 -0.0922538,0.0989448 -0.0814118,0.1076889 -0.0707948,0.1165393 -0.0601086,0.1252987 -0.0240085,0.064825 -0.0251697,0.069289 -0.0383901,0.1431086 -0.0284921,0.1512222 -0.002615,0.023034 -0.0145739,0.1372906 -0.007364,0.1606376 -1.9708e-4,0.00775 0.003672,0.1775783 0.005134,0.075384 0.009113,0.1107231 0.0158428,0.1300132 0.008998,0.064938 0.0280115,0.1610817 0.008306,0.043281 0.0381843,0.1711817 0.0105555,0.04322 0.0436947,0.1617835 0.0188038,0.06405 0.0420451,0.1328953 0.0360521,0.1057222 0.0305475,0.084215 0.0660131,0.1693916 0.005749,0.014247 0.0778203,0.1764344 0.0407684,0.085859 0.041705,0.084721 0.087499,0.1644503 0.03447,0.059601 0.058346,0.098364 0.098056,0.1515761 z m 0,0"
         id="path2624-5"
         style="fill:none;stroke:#ffff00;stroke-width:0.594141;stroke-dasharray:0.594141, 0.594141;stroke-dashoffset:0" />
    </g>
    <circle
       style="fill:#ff0000;fill-opacity:0.988235;stroke:none;stroke-width:11.1759;stroke-linecap:round;stroke-dasharray:15.8095, 15.8095;stroke-dashoffset:0;stroke-opacity:0.737255"
       id="path1-2"
       cx="29.807348"
       cy="51.071133"
       r="11.76127" />
    <circle
       style="fill:#ff0000;fill-opacity:0.988235;stroke:none;stroke-width:11.1759;stroke-linecap:round;stroke-dasharray:15.8095, 15.8095;stroke-dashoffset:0;stroke-opacity:0.737255"
       id="path1-2-7"
       cx="69.943741"
       cy="105.93288"
       r="11.76127" />
    <circle
       style="fill:#ff0000;fill-opacity:0.988235;stroke:none;stroke-width:11.1759;stroke-linecap:round;stroke-dasharray:15.8095, 15.8095;stroke-dashoffset:0;stroke-opacity:0.737255"
       id="path1-2-6"
       cx="103.37818"
       cy="53.881516"
       r="11.76127" />
  </g>
</svg>
